HIERARCHY
ROOT Hips
{
	OFFSET 0.000000 0.000000 0.000000
	CHANNELS 6 Xposition Yposition Zposition Xrotation Yrotation Zrotation
	JOINT LeftUpLeg_virtual
	{
		OFFSET 0.000000 0.000000 0.000000
		CHANNELS 3 Xrotation Yrotation Zrotation
		JOINT LeftUpLeg
		{
			OFFSET 10.205400 -3.823500 0.155100
			CHANNELS 3 Xrotation Yrotation Zrotation
			JOINT LeftLeg
			{
				OFFSET 0.708757 -12.982077 0.567790
				CHANNELS 3 Xrotation Yrotation Zrotation
				JOINT LeftFoot
				{
					OFFSET -0.708756 -10.717838 -2.184338
					CHANNELS 3 Xrotation Yrotation Zrotation
					JOINT LeftToeBase
					{
						OFFSET 0.108149 -7.191104 7.560241
						CHANNELS 3 Xrotation Yrotation Zrotation
						JOINT LeftToe_End
						{
							OFFSET 0.070230 0.081724 4.490308
							CHANNELS 3 Xrotation Yrotation Zrotation
							End Site
							{
								OFFSET 0 0 0
							}
						}
					}
				}
			}
		}
	}
	JOINT RightUpLeg_virtual
	{
		OFFSET 0.000000 0.000000 0.000000
		CHANNELS 3 Xrotation Yrotation Zrotation
		JOINT RightUpLeg
		{
			OFFSET -10.205400 -3.823500 0.005500
			CHANNELS 3 Xrotation Yrotation Zrotation
			JOINT RightLeg
			{
				OFFSET -0.708756 -12.982134 0.610632
				CHANNELS 3 Xrotation Yrotation Zrotation
				JOINT RightFoot
				{
					OFFSET 0.708754 -10.717769 -1.945823
					CHANNELS 3 Xrotation Yrotation Zrotation
					JOINT RightToeBase
					{
						OFFSET -0.108140 -7.191069 7.372968
						CHANNELS 3 Xrotation Yrotation Zrotation
						JOINT RightToe_End
						{
							OFFSET -0.070227 0.081735 4.479403
							CHANNELS 3 Xrotation Yrotation Zrotation
							End Site
							{
								OFFSET 0 0 0
							}
						}
					}
				}
			}
		}
	}
	JOINT Spine_virtual
	{
		OFFSET 0.000000 0.000000 0.000000
		CHANNELS 3 Xrotation Yrotation Zrotation
		JOINT Spine
		{
			OFFSET 0.000000 6.876099 0.125700
			CHANNELS 3 Xrotation Yrotation Zrotation
			JOINT Spine1
			{
				OFFSET 0.000000 5.730043 0.104720
				CHANNELS 3 Xrotation Yrotation Zrotation
				JOINT Spine1_split
				{
					OFFSET 0.000000 5.730043 0.104720
					CHANNELS 3 Xrotation Yrotation Zrotation
					JOINT Spine2
					{
						OFFSET 0.000000 5.730043 0.104720
						CHANNELS 3 Xrotation Yrotation Zrotation
						JOINT Neck_virtual
						{
							OFFSET 0.000000 0.000000 0.000000
							CHANNELS 3 Xrotation Yrotation Zrotation
							JOINT Neck
							{
								OFFSET 0.000000 10.314075 0.188496
								CHANNELS 3 Xrotation Yrotation Zrotation
								JOINT Head
								{
									OFFSET 0.000000 7.643700 -2.377400
									CHANNELS 3 Xrotation Yrotation Zrotation
									JOINT HeadTop_End
									{
										OFFSET 0.000000 43.788605 -13.619600
										CHANNELS 3 Xrotation Yrotation Zrotation
										End Site
										{
											OFFSET 0 0 0
										}
									}
								}
							}
						}
						JOINT LeftShoulder_virtual
						{
							OFFSET 0.000000 0.000000 0.000000
							CHANNELS 3 Xrotation Yrotation Zrotation
							JOINT LeftShoulder
							{
								OFFSET 2.196100 4.412489 0.087492
								CHANNELS 3 Xrotation Yrotation Zrotation
								JOINT LeftShoulder_split
								{
									OFFSET 2.196100 4.412489 0.087492
									CHANNELS 3 Xrotation Yrotation Zrotation
									JOINT LeftArm
									{
										OFFSET 8.771219 -2.981674 -0.026999
										CHANNELS 3 Xrotation Yrotation Zrotation
										JOINT LeftForeArm
										{
											OFFSET 8.512804 0.000000 -0.000000
											CHANNELS 3 Xrotation Yrotation Zrotation
											JOINT LeftHand
											{
												OFFSET 18.484802 0.000000 -0.000000
												CHANNELS 3 Xrotation Yrotation Zrotation
												End Site
												{
													OFFSET 0 0 0
												}
											}
										}
									}
								}
							}
						}
						JOINT RightShoulder_virtual
						{
							OFFSET 0.000000 0.000000 0.000000
							CHANNELS 3 Xrotation Yrotation Zrotation
							JOINT RightShoulder
							{
								OFFSET -2.196100 4.412496 0.070690
								CHANNELS 3 Xrotation Yrotation Zrotation
								JOINT RightShoulder_split
								{
									OFFSET -2.196100 4.412496 0.070690
									CHANNELS 3 Xrotation Yrotation Zrotation
									JOINT RightArm
									{
										OFFSET -8.771282 -2.981682 -0.094208
										CHANNELS 3 Xrotation Yrotation Zrotation
										JOINT RightForeArm
										{
											OFFSET -8.494598 0.000000 0.000000
											CHANNELS 3 Xrotation Yrotation Zrotation
											JOINT RightHand
											{
												OFFSET -18.483803 0.000000 0.000001
												CHANNELS 3 Xrotation Yrotation Zrotation
												End Site
												{
													OFFSET 0 0 0
												}
											}
										}
									}
								}
							}
						}
					}
				}
			}
		}
	}
}
MOTION
Frames: 9
Frame Time: 0.03333333
1.311313 33.288342 -3.820487 0.000000 0.000000 0.000000 -17.830660 -7.621826 -1.688202 7.265163 31.156970 3.801634 34.565726 7.542855 -4.588149 -23.206999 20.243291 -9.374758 -2.096313 -3.882672 6.687834 0.000000 0.000000 0.000000 -16.935044 -8.488262 -2.355824 29.217623 -13.885209 5.543156 23.941352 0.220913 7.799907 -42.388724 -26.697586 -0.187503 -5.597305 4.046011 -12.309867 0.000000 0.000000 0.000000 -17.815278 -3.670658 -2.265887 5.996200 -6.005589 -3.086901 2.806006 -0.537532 -0.647923 0.158667 0.092409 -0.011721 0.000000 0.000000 0.000000 6.844607 0.580220 -0.154138 4.221554 3.458668 1.537013 -12.984298 -20.035498 9.207299 0.000000 0.000000 0.000000 5.607072 -0.628445 -0.655113 5.861381 -4.167422 -9.945532 7.467081 -7.971343 -0.455984 -28.858570 6.793006 -32.520853 8.101704 -52.373218 6.245276 0.000000 0.000000 0.000000 4.884006 -0.993134 -0.300424 -1.257652 8.766585 16.507838 4.252194 3.563188 1.137121 -12.778673 0.841500 60.350766 -7.443876 38.735601 4.764116 0.000000 0.000000 0.000000 
1.183097 33.254692 -3.796885 0.000000 0.000000 0.000000 -17.937199 -7.772508 -1.837408 6.518640 30.592523 4.819855 36.523043 7.463939 -4.941112 -22.631332 19.886398 -8.739571 -1.222196 -3.732584 6.353731 0.000000 0.000000 0.000000 -16.793705 -8.462798 -2.394862 28.967375 -14.080614 5.842541 24.542183 0.379269 7.509514 -42.410656 -27.078036 -0.186607 -4.940374 3.928055 -12.189950 0.000000 0.000000 0.000000 -17.876179 -4.094069 -2.412534 6.253711 -6.194274 -3.123497 2.780666 -0.575726 -0.654450 0.157540 0.056208 -0.004589 0.000000 0.000000 0.000000 6.844520 0.547709 -0.159270 4.271587 3.517595 1.530002 -12.932468 -19.949048 9.208061 0.000000 0.000000 0.000000 5.677121 -0.677633 -0.642815 5.827091 -4.258600 -9.976119 7.522727 -7.991657 -0.458190 -29.164986 6.582146 -32.726660 8.169582 -52.675751 6.347934 0.000000 0.000000 0.000000 4.876753 -1.033799 -0.278994 -1.223432 8.747155 16.516140 4.107114 3.168329 1.115714 -12.637000 0.510713 60.413979 -7.520636 38.684839 4.857172 0.000000 0.000000 0.000000 
0.996791 33.249176 -3.715166 0.000000 0.000000 0.000000 -18.035775 -8.155753 -2.416039 3.783734 29.523435 7.340098 39.895828 6.807618 -5.463003 -20.182118 18.443642 -8.731507 0.510435 -3.553313 5.475396 0.000000 0.000000 0.000000 -16.719538 -8.718428 -2.822543 28.608157 -14.283793 6.067709 25.384098 0.985384 7.306941 -43.095820 -27.337050 -0.345724 -3.514389 3.844033 -12.428174 0.000000 0.000000 0.000000 -17.902264 -4.937818 -2.918789 6.476350 -6.335747 -2.946494 2.773658 -0.653585 -0.684427 0.159723 0.031856 0.000279 0.000000 0.000000 0.000000 6.857511 0.474584 -0.202347 4.353588 3.602483 1.537129 -12.917619 -19.642811 9.388361 0.000000 0.000000 0.000000 5.743375 -0.774871 -0.667617 5.751232 -4.305966 -10.066371 7.576283 -7.981169 -0.466259 -29.646644 6.379030 -32.990002 8.385724 -52.835605 6.545548 0.000000 0.000000 0.000000 4.879734 -1.120376 -0.276266 -1.181266 8.578131 16.445762 3.707250 2.819399 1.166554 -12.347041 0.257251 60.341491 -7.646730 38.606179 5.000009 0.000000 0.000000 0.000000 
0.813698 33.269730 -3.587597 0.000000 0.000000 0.000000 -18.192583 -8.946361 -3.342315 0.133327 27.787081 10.562829 43.215386 5.375960 -5.719955 -16.068146 15.725216 -9.534060 -0.616989 -3.680369 5.173494 0.000000 0.000000 0.000000 -16.784748 -9.408445 -3.580032 28.156183 -14.420607 6.206449 26.334539 1.985148 7.156566 -43.998713 -27.508857 -0.458152 -1.972497 3.841178 -12.961847 0.000000 0.000000 0.000000 -17.929277 -6.112214 -3.689136 6.632920 -6.388033 -2.597870 2.798867 -0.748280 -0.729284 0.167424 0.041346 0.007935 0.000000 0.000000 0.000000 6.873277 0.373978 -0.275005 4.465958 3.701540 1.554851 -12.927123 -19.141412 9.678236 0.000000 0.000000 0.000000 5.802449 -0.907750 -0.719033 5.631840 -4.308246 -10.195151 7.634138 -7.922080 -0.424740 -30.175475 6.235433 -33.268806 8.640648 -52.776930 6.739739 0.000000 0.000000 0.000000 4.898337 -1.232862 -0.287167 -1.133118 8.297296 16.292021 3.152928 2.631197 1.212995 -11.970789 0.185300 60.169834 -7.790424 38.504075 5.151143 0.000000 0.000000 0.000000 
0.678660 33.312950 -3.387689 0.000000 0.000000 0.000000 -18.418520 -10.320093 -4.438379 -2.578537 25.391804 13.041330 45.235274 3.668240 -5.370841 -12.548271 12.178684 -9.973531 -5.123996 -4.194914 5.700651 0.000000 0.000000 0.000000 -16.962566 -10.572362 -4.522859 27.532709 -14.421864 6.118510 27.202104 3.395575 6.989692 -44.294661 -27.791982 0.125338 -1.376807 3.976189 -13.656010 0.000000 0.000000 0.000000 -18.039313 -7.748840 -4.616470 6.728609 -6.325095 -2.159335 2.860616 -0.843277 -0.777838 0.171431 0.057052 -0.002343 0.000000 0.000000 0.000000 6.889389 0.262156 -0.356221 4.599977 3.822454 1.574977 -12.984287 -18.485210 9.996011 0.000000 0.000000 0.000000 5.866194 -1.057743 -0.772819 5.483109 -4.287881 -10.320528 7.729285 -7.857341 -0.343268 -30.653360 6.144694 -33.498769 8.813102 -52.573995 6.818807 0.000000 0.000000 0.000000 4.925907 -1.350192 -0.302181 -1.094228 7.948411 16.080075 2.557947 2.507917 1.260889 -11.572215 0.349611 59.926782 -7.912597 38.357024 5.256906 0.000000 0.000000 0.000000 
0.600295 33.363461 -3.099599 0.000000 0.000000 0.000000 -18.682826 -12.325392 -5.525658 -3.841240 22.909942 14.030737 46.083723 2.505641 -4.652370 -11.528974 8.906893 -9.267795 -8.492548 -4.717723 5.933679 0.000000 0.000000 0.000000 -17.227310 -12.345328 -5.481687 26.725425 -14.167662 5.726355 27.909570 5.178009 6.672998 -43.722168 -28.222048 1.554365 -1.733689 4.203443 -14.333813 0.000000 0.000000 0.000000 -18.333411 -9.899452 -5.631055 6.761312 -6.134532 -1.729992 2.945237 -0.924452 -0.814775 0.160417 0.087919 -0.022270 0.000000 0.000000 0.000000 6.907006 0.154737 -0.430507 4.732675 3.963132 1.584925 -13.136120 -17.706874 10.254666 0.000000 0.000000 0.000000 5.948786 -1.202654 -0.808972 5.323443 -4.276306 -10.433145 7.840661 -7.809714 -0.244572 -31.023996 6.114116 -33.629888 8.833016 -52.337291 6.724002 0.000000 0.000000 0.000000 4.957719 -1.457729 -0.309462 -1.076797 7.595923 15.853330 1.967781 2.347315 1.312335 -11.196199 0.718341 59.667897 -7.977046 38.164290 5.271139 0.000000 0.000000 0.000000 
0.579914 33.411079 -2.761464 0.000000 0.000000 0.000000 -19.044149 -14.866972 -6.526012 -3.974714 20.532346 13.708697 45.882014 1.736733 -3.586944 -12.622112 6.437939 -8.692850 -8.352345 -4.908412 5.677287 0.000000 0.000000 0.000000 -17.599227 -14.792911 -6.382276 25.801484 -13.607543 5.106734 28.338291 7.003957 6.154462 -42.778632 -28.579622 2.964424 -2.125551 4.380013 -14.824746 0.000000 0.000000 0.000000 -18.850296 -12.428073 -6.659540 6.753542 -5.850281 -1.392525 3.050340 -0.986461 -0.835568 0.157429 0.114495 -0.033926 0.000000 0.000000 0.000000 6.936521 0.070610 -0.482070 4.859922 4.131617 1.579862 -13.433296 -16.813405 10.410492 0.000000 0.000000 0.000000 6.042704 -1.324189 -0.814509 5.169627 -4.309012 -10.519209 7.927822 -7.747774 -0.210989 -31.280340 6.130906 -33.653015 8.670167 -52.118445 6.434253 0.000000 0.000000 0.000000 4.986695 -1.542222 -0.298138 -1.080730 7.297067 15.655485 1.464439 2.144996 1.380222 -10.869352 1.184358 59.405488 -7.975438 37.944638 5.175116 0.000000 0.000000 0.000000 
0.618970 33.460781 -2.392789 0.000000 0.000000 0.000000 -19.543084 -18.039136 -7.516187 -3.180112 18.154247 12.274990 44.649104 0.989221 -2.208361 -14.511685 4.946421 -9.428945 -5.765010 -4.796567 5.323855 0.000000 0.000000 0.000000 -18.044175 -17.830743 -7.263513 24.770379 -12.866276 4.376978 28.461222 8.613005 5.468426 -42.128429 -28.757354 3.520259 -1.875961 4.404676 -15.072616 0.000000 0.000000 0.000000 -19.529666 -15.269535 -7.726920 6.709144 -5.484465 -1.175838 3.159359 -1.027049 -0.837483 0.158080 0.111899 -0.037722 0.000000 0.000000 0.000000 6.994010 0.024241 -0.497717 4.957171 4.316677 1.563360 -13.876062 -15.891270 10.467466 0.000000 0.000000 0.000000 6.130962 -1.407050 -0.792786 5.031039 -4.395006 -10.581968 7.987770 -7.671513 -0.255478 -31.444538 6.164219 -33.587575 8.387573 -51.941980 6.004432 0.000000 0.000000 0.000000 5.009659 -1.599849 -0.274614 -1.119538 7.112959 15.538848 1.068457 1.841347 1.458315 -10.594980 1.615447 59.151200 -7.917701 37.752563 4.973645 0.000000 0.000000 0.000000 
0.681591 33.532162 -2.005899 0.000000 0.000000 0.000000 -20.203180 -21.721946 -8.564739 -2.090795 16.083642 10.267750 42.798553 0.226004 -0.779303 -15.934143 4.173728 -11.205888 -3.356092 -4.596102 5.202779 0.000000 0.000000 0.000000 -18.597589 -21.213794 -8.198979 23.683435 -12.099822 3.636274 28.317799 9.976764 4.666175 -41.781005 -28.792755 3.233197 -1.119735 4.316651 -15.196968 0.000000 0.000000 0.000000 -20.328583 -18.303785 -8.886822 6.668178 -5.048344 -1.060559 3.266705 -1.037419 -0.826232 0.155633 0.094654 -0.027961 0.000000 0.000000 0.000000 7.073770 0.020241 -0.483193 4.982549 4.497325 1.557682 -14.392317 -15.013026 10.477240 0.000000 0.000000 0.000000 6.191439 -1.442091 -0.764630 4.901246 -4.519539 -10.645104 7.940890 -7.599234 -0.330488 -31.535656 6.201049 -33.467329 8.081801 -51.766373 5.533624 0.000000 0.000000 0.000000 5.019470 -1.626748 -0.243181 -1.189886 7.068680 15.518755 0.798142 1.483205 1.467366 -10.376704 1.904944 58.930531 -7.822340 37.652326 4.685575 0.000000 0.000000 0.000000 
